<?xml version="1.0" encoding="UTF-8"?>
<!-- Created with Inkscape (http://www.inkscape.org/) -->
<svg width="4673.9" height="1e3" version="1.1" viewBox="0 0 1236.6 264.58" xmlns="http://www.w3.org/2000/svg" xmlns:cc="http://creativecommons.org/ns#" xmlns:dc="http://purl.org/dc/elements/1.1/" xmlns:rdf="http://www.w3.org/1999/02/22-rdf-syntax-ns#">
 <title>Minos Icon</title>
 <g transform="translate(-20.903 -20.904)">
  <g>
   <g transform="matrix(1.2317 0 0 1.2317 -9.7473 -9.7476)" fill="#0566ac">
    <path transform="scale(.26458)" d="m328.12 254.76c-39.829 0-72.363 32.536-72.363 72.365v343.77c0 39.829 32.534 72.365 72.363 72.365h151.93l7.3867-90.053h-91.758c-27.364 0-49.871-22.501-49.871-49.865v-208.66c0-27.364 22.507-49.863 49.871-49.863h117.05l-1.9727 24.062 9.3613-114.12zm2.0879 60.393a15.057 15.057 0 0 1 15.057 15.057 15.057 15.057 0 0 1-15.057 15.057 15.057 15.057 0 0 1-15.057-15.057 15.057 15.057 0 0 1 15.057-15.057zm-4e-3 339.59a15.057 15.057 0 0 1 15.057 15.057 15.057 15.057 0 0 1-15.057 15.059 15.057 15.057 0 0 1-15.059-15.059 15.057 15.057 0 0 1 15.059-15.057z" color="#000000" stroke-width="3.7795" style="-inkscape-stroke:none"/>
    <path transform="scale(.26458)" d="m395.68 375.05c-11.136 0-19.635 8.4928-19.635 19.629v208.66c0 11.136 8.4986 19.629 19.635 19.629h94.238l20.336-247.91z" color="#000000" stroke-width="3.7795" style="-inkscape-stroke:none"/>
    <g transform="translate(27.305 -16.471)" stroke-linecap="round">
     <path transform="scale(.26458)" d="m242.55 790.39v97.738a15.118 15.118 0 0 0 15.117 15.117 15.118 15.118 0 0 0 15.119-15.117v-97.738z" color="#000000" stroke-width="3.7795" style="-inkscape-stroke:none"/>
     <g>
      <path d="m88.716 209.12v25.86a4 4 0 0 0 3.9998 3.9998 4 4 0 0 0 4.0003-3.9998v-25.86z" color="#000000" style="-inkscape-stroke:none"/>
      <path d="m113.26 209.12v25.86a4 4 0 0 0 3.9998 3.9998 4 4 0 0 0 4.0003-3.9998v-25.86z" color="#000000" style="-inkscape-stroke:none"/>
      <path d="m137.8 209.12v25.86a4 4 0 0 0 3.9998 3.9998 4 4 0 0 0 4.0003-3.9998v-25.86z" color="#000000" style="-inkscape-stroke:none"/>
     </g>
    </g>
    <g transform="rotate(180 118.64 140.53)" stroke-linecap="round">
     <path transform="scale(.26458)" d="m242.55 790.39v97.738a15.118 15.118 0 0 0 15.117 15.117 15.118 15.118 0 0 0 15.119-15.117v-97.738z" color="#000000" stroke-width="3.7795" style="-inkscape-stroke:none"/>
     <g>
      <path d="m88.716 209.12v25.86a4 4 0 0 0 3.9998 3.9998 4 4 0 0 0 4.0003-3.9998v-25.86z" color="#000000" style="-inkscape-stroke:none"/>
      <path d="m113.26 209.12v25.86a4 4 0 0 0 3.9998 3.9998 4 4 0 0 0 4.0003-3.9998v-25.86z" color="#000000" style="-inkscape-stroke:none"/>
      <path d="m137.8 209.12v25.86a4 4 0 0 0 3.9998 3.9998 4 4 0 0 0 4.0003-3.9998v-25.86z" color="#000000" style="-inkscape-stroke:none"/>
     </g>
    </g>
    <g transform="rotate(90 126.87 154.18)" stroke-linecap="round">
     <path transform="scale(.26458)" d="m242.55 790.39v97.738a15.118 15.118 0 0 0 15.117 15.117 15.118 15.118 0 0 0 15.119-15.117v-97.738z" color="#000000" stroke-width="3.7795" style="-inkscape-stroke:none"/>
     <g>
      <path d="m88.716 209.12v25.86a4 4 0 0 0 3.9998 3.9998 4 4 0 0 0 4.0003-3.9998v-25.86z" color="#000000" style="-inkscape-stroke:none"/>
      <path d="m113.26 209.12v25.86a4 4 0 0 0 3.9998 3.9998 4 4 0 0 0 4.0003-3.9998v-25.86z" color="#000000" style="-inkscape-stroke:none"/>
      <path d="m137.8 209.12v25.86a4 4 0 0 0 3.9998 3.9998 4 4 0 0 0 4.0003-3.9998v-25.86z" color="#000000" style="-inkscape-stroke:none"/>
     </g>
    </g>
    <g transform="rotate(-90 110.4 126.87)" stroke-linecap="round">
     <path transform="scale(.26458)" d="m242.55 790.39v97.738a15.118 15.118 0 0 0 15.117 15.117 15.118 15.118 0 0 0 15.119-15.117v-97.738z" color="#000000" stroke-width="3.7795" style="-inkscape-stroke:none"/>
     <g>
      <path d="m88.716 209.12v25.86a4 4 0 0 0 3.9998 3.9998 4 4 0 0 0 4.0003-3.9998v-25.86z" color="#000000" style="-inkscape-stroke:none"/>
      <path d="m113.26 209.12v25.86a4 4 0 0 0 3.9998 3.9998 4 4 0 0 0 4.0003-3.9998v-25.86z" color="#000000" style="-inkscape-stroke:none"/>
      <path d="m137.8 209.12v25.86a4 4 0 0 0 3.9998 3.9998 4 4 0 0 0 4.0003-3.9998v-25.86z" color="#000000" style="-inkscape-stroke:none"/>
     </g>
    </g>
    <g stroke-linecap="round" stroke-width="4.8288">
     <path transform="scale(-1)" d="m-135.66-91.233 0.65578-7.9995h-24.891c-2.9464 0-5.1935-2.247-5.1935-5.1935v-55.207c0-2.9464 2.247-5.1935 5.1935-5.1935h30.272l0.65629-8h-30.928c-7.24 0-13.194 5.9535-13.194 13.194v55.207c0 7.2401 5.9535 13.193 13.194 13.193z"/>
     <path transform="scale(-1)" d="m-129.75-67.404-0.17631-8h-47.603c-6.2446 0-11.146-4.902-11.147-11.147l-0.0134-90.955c-9.3e-4 -6.2446 4.6716-11.147 10.916-11.147h51.754l0.65629-8h-52.411c-10.538 0-18.916 8.6084-18.916 19.147v90.955c0 10.538 8.6219 19.147 19.16 19.147z"/>
     <path transform="scale(-1)" d="m-177.22-91.352a3.9839 3.9839 0 0 1 3.9839 3.9839 3.9839 3.9839 0 0 1-3.9839 3.9839 3.9839 3.9839 0 0 1-3.9839-3.9839 3.9839 3.9839 0 0 1 3.9839-3.9839z"/>
     <path transform="scale(-1)" d="m-173.23-177.22a3.9839 3.9839 0 0 1-3.9839 3.9839 3.9839 3.9839 0 0 1-3.9839-3.9839 3.9839 3.9839 0 0 1 3.9839-3.9839 3.9839 3.9839 0 0 1 3.9839 3.9839z"/>
    </g>
   </g>
   <text x="303.63641" y="203.49313" fill="#ffffff" font-family="sans-serif" font-size="123.47px" stroke-width=".26458" style="line-height:1.25" xml:space="preserve"><tspan x="303.63641" y="203.49313" fill="#ffffff" font-family="Inter" font-size="123.47px" font-weight="600" stroke-width=".26458">Minos Compare</tspan></text>
  </g>
 </g>
 <metadata>
  <rdf:RDF>
   <cc:Work rdf:about="">
    <dc:title>Minos Icon</dc:title>
   </cc:Work>
  </rdf:RDF>
 </metadata>
</svg>
