<?xml version="1.0" standalone="no"?>
<!DOCTYPE svg PUBLIC "-//W3C//DTD SVG 20010904//EN"
 "http://www.w3.org/TR/2001/REC-SVG-20010904/DTD/svg10.dtd">
<svg version="1.0" xmlns="http://www.w3.org/2000/svg"
 width="700.000000pt" height="700.000000pt" viewBox="0 0 700.000000 700.000000"
 preserveAspectRatio="xMidYMid meet">
<metadata>
Created by potrace 1.14, written by Peter Selinger 2001-2017
</metadata>
<g transform="translate(0.000000,700.000000) scale(0.100000,-0.100000)"
fill="#000000" stroke="none">
<path d="M1996 6977 c-23 -13 -48 -38 -60 -61 -19 -38 -20 -57 -20 -468 0
-382 -1 -428 -15 -428 -300 -4 -401 -23 -538 -104 -232 -137 -362 -367 -369
-651 -1 -66 -3 -134 -3 -151 l-1 -30 -417 0 c-230 0 -435 -4 -456 -8 -43 -8
-87 -47 -106 -93 -35 -86 28 -194 121 -206 23 -3 225 -6 446 -6 222 0 406 -2
409 -5 5 -5 8 -471 4 -603 l-1 -33 -432 0 c-411 0 -434 -1 -473 -20 -105 -51
-111 -190 -11 -264 27 -20 41 -21 472 -24 l444 -3 1 -27 c3 -97 1 -603 -3
-607 -3 -3 -203 -6 -446 -8 -427 -2 -441 -3 -468 -23 -43 -31 -65 -67 -71
-112 -8 -57 25 -121 76 -150 38 -22 45 -22 475 -22 408 0 436 -1 437 -17 4
-88 3 -597 -2 -610 -5 -14 -50 -16 -440 -17 -415 -1 -435 -2 -468 -21 -56 -33
-76 -68 -76 -134 1 -68 25 -109 82 -137 35 -16 74 -18 473 -18 l435 0 1 -140
c1 -166 20 -252 87 -380 57 -112 189 -244 302 -303 121 -63 214 -85 375 -89
74 -1 140 -3 145 -3 8 -1 11 -140 11 -439 0 -421 1 -440 21 -478 52 -101 188
-111 259 -18 l29 37 0 449 c0 391 2 448 15 449 49 3 607 4 618 1 9 -3 12 -101
12 -444 0 -434 0 -441 22 -479 29 -51 93 -84 150 -76 45 6 81 28 112 71 20 27
21 41 24 479 l3 452 317 0 317 -1 5 -451 c5 -436 6 -452 26 -479 31 -43 67
-65 112 -71 57 -8 121 25 150 76 22 38 22 45 22 482 l0 444 320 0 c313 0 320
0 321 -20 0 -11 1 -204 1 -429 0 -236 5 -424 10 -444 6 -20 24 -50 42 -68 70
-70 196 -47 241 42 19 40 20 58 19 480 l0 439 125 0 c140 -1 198 7 284 36 188
64 340 196 427 374 62 126 78 218 80 461 l0 41 439 0 c416 0 441 1 478 20 92
47 109 172 33 245 -26 24 -51 38 -77 41 -21 3 -224 6 -451 5 -228 0 -416 3
-419 5 -4 4 -7 506 -4 620 1 16 29 17 442 17 435 0 442 0 480 22 51 29 84 93
76 150 -6 45 -28 81 -71 112 -27 20 -41 21 -477 24 l-449 3 -1 22 c-2 94 0
609 3 612 2 2 205 5 450 7 433 3 447 4 474 24 68 50 88 115 59 189 -12 34 -27
51 -59 70 l-43 25 -441 0 -442 0 -1 33 c0 39 0 576 0 597 1 13 56 15 436 14
391 -1 439 1 474 16 114 52 119 216 7 274 -38 19 -57 20 -478 20 -433 0 -438
1 -438 21 -4 263 -12 334 -52 435 -63 158 -168 283 -313 371 -58 35 -150 74
-197 83 -13 3 -43 9 -68 14 -25 4 -98 8 -162 8 -65 -1 -119 1 -119 4 -1 3 -3
196 -4 430 -1 481 -1 479 -78 524 -78 47 -175 19 -216 -62 -17 -34 -18 -69
-19 -460 0 -233 -3 -426 -6 -429 -4 -5 -536 -8 -618 -4 -17 1 -18 29 -18 432
0 419 -1 432 -21 469 -28 50 -72 74 -136 75 -56 0 -89 -18 -127 -69 -20 -27
-21 -41 -24 -467 -2 -407 -4 -439 -20 -439 -48 -1 -589 -1 -604 -1 -16 1 -18
33 -20 440 -3 426 -4 440 -24 467 -37 50 -70 68 -127 68 -41 1 -62 -5 -90 -24
-66 -45 -67 -50 -67 -525 l0 -425 -25 -1 c-154 -5 -608 -2 -612 4 -3 5 -5 196
-5 425 1 438 -1 456 -46 505 -42 47 -128 58 -186 24z m3391 -1290 c110 -38
202 -116 251 -212 53 -105 50 -13 50 -1970 0 -1947 2 -1867 -48 -1965 -47 -92
-158 -182 -260 -211 -35 -10 -263 -13 -1053 -14 l-1007 -1 5 50 c2 28 7 85 10
126 3 41 8 91 10 110 2 19 7 76 11 125 3 50 7 104 9 120 1 17 3 42 4 56 l1 27
638 0 c418 0 646 4 665 11 15 6 27 8 27 6 0 -10 105 38 149 67 108 75 165 149
207 274 l27 79 0 1130 c0 872 -3 1144 -13 1190 -40 191 -197 351 -388 395 -38
9 -191 12 -548 12 -273 0 -497 -2 -499 -4 -4 -4 -13 -93 -21 -198 -3 -47 -7
-89 -7 -95 -1 -7 169 -10 493 -11 537 -1 544 -1 606 -57 69 -60 65 16 65
-1217 0 -968 -2 -1120 -15 -1151 -17 -40 -74 -95 -115 -111 -16 -6 -246 -10
-633 -10 -335 0 -608 -3 -609 -7 0 -3 -2 -13 -4 -22 -1 -8 -6 -58 -9 -110 -7
-98 -15 -161 -22 -168 -1 -2 -223 -3 -493 -3 -533 0 -561 3 -670 56 -80 39
-185 141 -223 217 -63 127 -61 72 -61 1309 0 1221 -2 1179 56 1297 71 145 219
254 375 278 24 4 323 7 663 7 463 0 619 3 620 11 1 7 2 23 4 37 1 14 5 68 9
120 4 52 9 106 11 120 2 14 7 70 11 125 3 55 8 111 9 125 2 14 4 37 4 51 l1
25 828 -1 c766 0 831 -2 879 -18z m-3566 -306 c49 -19 89 -80 89 -136 0 -148
-185 -209 -274 -92 -57 75 -32 182 54 225 45 23 79 23 131 3z m27 -3501 c115
-85 57 -271 -85 -273 -66 -1 -112 26 -141 83 -38 75 -16 147 59 198 44 31 119
27 167 -8z"/>
<path d="M5188 5386 c-119 -50 -132 -210 -22 -273 73 -42 154 -23 208 50 27
36 27 112 0 158 -36 60 -123 91 -186 65z"/>
<path d="M2420 4780 c-30 -3 -71 -13 -90 -23 -39 -19 -83 -77 -94 -122 -4 -16
-8 -528 -7 -1137 0 -1095 0 -1107 20 -1145 36 -66 69 -94 130 -108 25 -5 934
-11 1007 -6 8 1 14 38 19 104 4 56 9 109 10 117 2 8 6 60 10 115 11 158 17
224 30 375 2 19 6 71 10 115 3 44 8 105 11 135 2 30 7 84 10 120 2 36 7 92 9
125 3 33 7 89 10 125 3 36 7 88 10 115 5 50 15 178 20 245 5 67 16 195 21 247
2 28 7 80 9 115 2 35 7 88 10 118 3 30 7 82 10 115 11 159 18 231 22 238 2 4
-3 10 -13 14 -20 8 -1096 10 -1174 3z"/>
<path d="M5173 1893 c-50 -28 -76 -69 -81 -127 -9 -120 110 -198 219 -143 49
25 78 68 83 123 11 117 -119 203 -221 147z"/>
</g>
</svg>
